<svg width="23" height="10" viewBox="0 0 23 10" fill="none" xmlns="http://www.w3.org/2000/svg">
<path d="M3.33284 7.83293L1.93616 6.21801C1.80584 6.06866 1.71112 5.89119 1.65807 5.69696C1.60503 5.50273 1.59483 5.29601 1.62812 5.09006C1.66141 4.88411 1.73747 4.68346 1.85141 4.50096C1.96536 4.31845 2.11468 4.15813 2.28982 4.03025C4.259 2.6418 6.49055 1.70124 8.80515 1.28414C10.9439 0.879094 13.1049 0.937695 15.1346 1.45578C17.3451 1.9987 19.3478 3.06152 20.9803 4.55812C21.1237 4.69424 21.2341 4.86102 21.3044 5.04784C21.3747 5.23466 21.4033 5.43743 21.3884 5.64323C21.3736 5.84903 21.3156 6.05336 21.2181 6.24321C21.1207 6.43306 20.9859 6.60426 20.8224 6.74593L19.0543 8.27503C18.7705 8.52496 18.4133 8.67226 18.0491 8.68946C17.6849 8.70666 17.3386 8.5926 17.0749 8.36854C16.5533 7.91627 15.976 7.52852 15.3541 7.21269C15.1082 7.08859 14.9099 6.89404 14.7828 6.65208C14.6557 6.41012 14.6051 6.1309 14.637 5.8475L14.7942 4.51653C12.7897 3.89444 10.603 3.83514 8.46478 4.34489L8.30757 5.67586C8.2725 5.95917 8.15646 6.23387 7.9732 6.46742C7.78994 6.70096 7.54713 6.88355 7.27355 6.99356C6.58124 7.27375 5.91636 7.62782 5.29159 8.049C4.9734 8.25971 4.59804 8.35412 4.23689 8.31428C3.87573 8.27444 3.55398 8.10313 3.33284 7.83293Z" stroke="#E0E7FF" stroke-width="2" stroke-linecap="round" stroke-linejoin="round"/>
</svg>
